<?xml version="1.0" encoding="utf-8"?>
<!-- Generator: Adobe Illustrator 16.0.0, SVG Export Plug-In . SVG Version: 6.00 Build 0)  -->
<!DOCTYPE svg PUBLIC "-//W3C//DTD SVG 1.1//EN" "http://www.w3.org/Graphics/SVG/1.1/DTD/svg11.dtd">
<svg version="1.1" id="Layer_1" xmlns="http://www.w3.org/2000/svg" xmlns:xlink="http://www.w3.org/1999/xlink" x="0px" y="0px"
	 width="36px" height="36px" viewBox="0 0 36 36" enable-background="new 0 0 36 36" xml:space="preserve">
<title>key-line</title>
<path fill="#ECEFF1" d="M7.546,13.82l5.452-5.452c0.391-0.391,1.023-0.391,1.414,0l0.403,0.403c0.39,0.39,0.39,1.023,0,1.414
	l-5.452,5.452c-0.39,0.391-1.023,0.391-1.414,0l-0.403-0.403C7.156,14.844,7.156,14.21,7.546,13.82z"/>
<path fill="#ECEFF1" d="M23.35,16.8l0.631-0.63c1.957-1.947,1.966-5.112,0.02-7.07l-5.29-5.26c-1.953-1.952-5.118-1.952-7.07,0
	l-8.55,8.55c-1.952,1.952-1.952,5.117,0,7.07l5.26,5.261c1.953,1.951,5.117,1.951,7.07,0l0.4-0.4L18,26.48h3.439v3h3.69v1.629L28,34
	h6v-6.55L23.35,16.8z M32,32h-3.141l-1.77-1.76v-2.801h-3.68v-3H18.8l-3-3L14,23.311c-1.171,1.17-3.069,1.17-4.24,0L4.5,18
	c-1.17-1.171-1.17-3.069,0-4.24l8.56-8.56c1.171-1.17,3.069-1.17,4.24,0l5.261,5.26c1.17,1.171,1.17,3.069,0,4.24l-2,2L32,28.279V32
	z"/>
</svg>
