<?xml version="1.0" encoding="utf-8"?>
<!-- Generator: Adobe Illustrator 16.0.0, SVG Export Plug-In . SVG Version: 6.00 Build 0)  -->
<!DOCTYPE svg PUBLIC "-//W3C//DTD SVG 1.1//EN" "http://www.w3.org/Graphics/SVG/1.1/DTD/svg11.dtd">
<svg version="1.1" id="Layer_1" xmlns="http://www.w3.org/2000/svg" xmlns:xlink="http://www.w3.org/1999/xlink" x="0px" y="0px"
	 width="36px" height="36px" viewBox="0 0 36 36" enable-background="new 0 0 36 36" xml:space="preserve">
<title>user-line</title>
<path fill="#ECEFF1" d="M18,17c3.866,0,7-3.134,7-7s-3.134-7-7-7s-7,3.134-7,7S14.134,17,18,17z M18,5c2.762,0,5,2.239,5,5
	s-2.238,5-5,5c-2.761,0-5-2.239-5-5S15.239,5,18,5z"/>
<path fill="#ECEFF1" d="M30.471,24.37c-6.514-6.884-17.375-7.185-24.259-0.671c-0.23,0.217-0.454,0.441-0.671,0.671
	C5.192,24.741,4.999,25.23,5,25.74V31c0,1.104,0.896,2,2,2h22c1.104,0,2-0.896,2-2v-5.26C31.004,25.232,30.814,24.743,30.471,24.37z
	 M29,31H7v-5.27c5.77-6.076,15.371-6.323,21.445-0.556C28.635,25.355,28.82,25.54,29,25.73l0,0V31z"/>
</svg>
